# xmcd
#
# Track frame offsets: 
#        150
#        12680
#        25962
#        37635
#        50490
#        61942
#        75050
#        86800
#        98420
#        114495
#        131972
#        144352
#        157152
#        169325
#        181970
#        193447
#        207487
#        221915
#        237852
#        252787
#        279435
#
# Disc length: 3914 seconds
#
# Revision: 0
# Processed by: cddbd v1.5.2PL0 Copyright (c) Steve Scherf et al.
# Submitted via: ExactAudioCopy v0.99pb4
#
DISCID=2b0f4815
DTITLE=Various Artist - Funky Blues '60-'70
DYEAR=1973
DGENRE=Blues
TTITLE0=Lowell Fulson - Mellow Together
TTITLE1=Lowell Fulson - Funky Broadway
TTITLE2=Lowell Fulson - The Thing
TTITLE3=Lowell Fulson - I'm A Drifter
TTITLE4=Lowell Fulson - Hobo Meetin'
TTITLE5=Arthur K Adams - Let Your Hair Down
TTITLE6=Arthur K Adams - I'm Lonely For You
TTITLE7=Arthur K Adams - You Make Me Cry
TTITLE8=The Newman Family - Kidney Stew
TTITLE9=The Newman Family - Two Ton Mama
TTITLE10=T.V.mama Jean - Women's Liberation
TTITLE11=Jimmy Bee - Funky Way
TTITLE12=Tommy Youngblood - Hey Little Girl
TTITLE13=Tommy Youngblood - Who Will You Favor
TTITLE14=Brenda George - What You See Is What Your Gonna Get
TTITLE15=Rudy Ray Moore - The Turning Point
TTITLE16=Smokey Wilson - Night Time
TTITLE17=Smokey Wilson - Go Go Train
TTITLE18=Smokey Wilson - Tell Me Baby
TTITLE19=Smokey Wilson - Deuce and Quarter
TTITLE20=Foxfire Feat.Johnny Adams - Tramp
EXTD=
EXTT0=
EXTT1=
EXTT2=
EXTT3=
EXTT4=
EXTT5=
EXTT6=
EXTT7=
EXTT8=
EXTT9=
EXTT10=
EXTT11=
EXTT12=
EXTT13=
EXTT14=
EXTT15=
EXTT16=
EXTT17=
EXTT18=
EXTT19=
EXTT20=
PLAYORDER=
